<svg width="1024" height="1024" viewBox="0 0 1024 1024" xmlns="http://www.w3.org/2000/svg">
  <defs>
    <linearGradient id="activeGrad" x1="0%" y1="0%" x2="100%" y2="100%">
      <stop offset="0%" stop-color="#FF1F44" />
      <stop offset="50%" stop-color="#4D00FF" />
      <stop offset="100%" stop-color="#FFDE00" />
    </linearGradient>
  </defs>
  <rect width="1024" height="1024" fill="url(#activeGrad)" />
  <path fill="#FFFFFF" d="M562.56 859.52L562.56 805.12Q562.56 796.16 556.48 790.40Q550.40 784.64 542.08 784.64L542.08 784.64L229.76 784.64Q220.80 784.64 215.04 790.40Q209.28 796.16 209.28 805.12L209.28 805.12L209.28 859.52Q209.28 868.48 215.04 874.24Q220.80 880 229.76 880L229.76 880L542.08 880Q550.40 880 556.48 874.24Q562.56 868.48 562.56 859.52L562.56 859.52ZM209.28 648.32L209.28 680.32Q209.28 689.28 215.04 695.04Q220.80 700.80 229.76 700.80L229.76 700.80L469.12 700.80Q478.08 700.80 483.84 695.04Q489.60 689.28 489.60 680.96L489.60 680.96L489.60 648.32Q489.60 639.36 483.84 633.60Q478.08 627.84 469.12 627.84L469.12 627.84L229.76 627.84Q220.80 627.84 215.04 633.60Q209.28 639.36 209.28 648.32L209.28 648.32ZM845.44 745.60L845.44 745.60Q867.84 745.60 883.20 760.96Q898.56 776.32 898.56 798.08L898.56 798.08L898.56 933.76Q898.56 945.92 894.08 956.48Q889.60 967.04 881.60 975.04Q873.60 983.04 862.72 987.52Q851.84 992 839.68 992L839.68 992L176.00 992Q154.88 992 140.16 977.28Q125.44 962.56 125.44 941.44L125.44 941.44L125.44 563.84Q125.44 555.52 131.20 549.76Q136.96 544 145.92 544L145.92 544L771.84 544Q794.24 544 809.92 559.68Q825.60 575.36 825.60 597.76L825.60 597.76L825.60 725.12Q825.60 734.08 831.36 739.84Q837.12 745.60 845.44 745.60Z"/>
</svg>